<?xml version="1.0" encoding="UTF-8" standalone="no"?>
<svg
   width="217.12315"
   height="45.856125"
   viewBox="0 -571 11995.947 2533.4335"
   version="1.1"
   id="svg13"
   xmlns:xlink="http://www.w3.org/1999/xlink"
   xmlns="http://www.w3.org/2000/svg"
   xmlns:svg="http://www.w3.org/2000/svg">
  <defs
     id="defs1">
    <path
       id="MJX-12-NCM-SS-1D5C9"
       d="m 295,-13 c 57,0 103,26 138,77 31,46 47,99 47,158 0,56 -12,107 -37,152 -30,54 -71,81 -123,81 -59,0 -111,-18 -157,-55 v 44 H 82 v -638 h 84 V 38 c 39,-34 82,-51 129,-51 m -39,68 c -32,0 -59,15 -81,45 -6,8 -9,19 -9,32 v 197 c 25,37 59,55 100,55 39,0 71,-18 96,-53 23,-32 34,-68 34,-109 C 396,136 338,55 256,55 Z" />
    <path
       id="MJX-12-NCM-N-2062"
       d="" />
    <path
       id="MJX-12-NCM-I-1D466"
       d="M 163,442 C 118,442 83,417 58,367 39,328 29,301 29,286 c 0,-9 5,-14 16,-14 14,0 15,6 19,21 23,79 55,119 96,119 13,0 20,-9 20,-27 0,-16 -5,-39 -16,-68 -38,-103 -57,-172 -57,-209 0,-76 47,-121 124,-121 33,0 64,12 92,36 -35,-132 -90,-198 -165,-198 -34,0 -57,11 -69,33 40,2 60,21 60,57 0,25 -13,38 -40,38 -37,0 -59,-31 -59,-68 0,-55 50,-90 108,-90 115,0 209,106 234,204 l 94,378 c 3,11 4,19 4,24 0,20 -11,30 -32,30 -16,0 -29,-8 -38,-23 -6,-21 -11,-39 -14,-54 L 342,97 C 332,61 279,16 234,16 c -38,0 -57,25 -57,76 0,42 17,106 50,192 13,35 20,59 20,73 0,49 -35,85 -84,85 z" />
    <path
       id="MJX-12-NCM-SS-1D5BA"
       d="M 244,461 C 189,461 137,446 86,417 l 7,-74 c 49,35 99,52 151,52 53,0 81,-51 81,-108 V 249 C 206,245 54,215 54,115 54,46 100,-11 169,-11 235,-11 288,3 328,31 V 0 h 81 v 288 c 0,96 -69,173 -165,173 M 132,117 c 0,42 64,66 193,73 v -56 c 0,-51 -35,-77 -106,-77 -43,0 -87,20 -87,60 z" />
    <path
       id="MJX-12-NCM-SS-1D5C0"
       d="M 61,290 C 61,253 72,221 93,192 74,165 65,137 65,108 65,80 73,55 89,34 48,9 28,-26 28,-69 c 0,-45 27,-80 81,-106 43,-21 89,-31 140,-31 51,0 98,10 141,31 54,26 81,62 81,107 0,47 -15,80 -46,100 -33,21 -63,34 -91,37 -31,3 -54,5 -69,5 h -87 c -35,0 -53,16 -53,48 0,12 3,22 8,30 27,-18 56,-27 89,-27 90,0 161,75 161,165 0,34 -9,65 -28,94 12,0 56,4 68,4 12,0 33,-1 63,-4 l -12,71 c -57,0 -110,-10 -158,-31 -27,21 -58,31 -94,31 C 132,455 61,380 61,290 m 245,0 c 0,-21 -1,-35 -3,-42 -9,-30 -45,-59 -81,-59 -55,0 -84,44 -84,101 0,57 29,101 84,101 55,0 84,-44 84,-101 M 177,-5 h 89 c 86,0 129,-22 129,-65 0,-25 -19,-44 -57,-57 -28,-10 -57,-15 -88,-15 -31,0 -61,5 -88,15 -38,13 -57,33 -57,58 0,38 29,64 72,64 z" />
    <path
       id="MJX-12-NCM-SS-1D5CD"
       d="m 186,-11 c 48,0 97,13 147,39 L 315,95 C 286,72 256,60 225,60 c -31,0 -46,26 -46,78 v 243 h 137 v 65 H 179 V 571 H 104 V 446 H 19 v -65 h 82 V 121 c 0,-88 28,-132 85,-132 z" />
    <path
       id="MJX-12-NCM-SS-1D5BE"
       d="M 112,215 H 414 C 414,353 363,461 236,461 177,461 128,436 89,386 53,340 35,287 35,226 35,162 55,107 94,61 c 41,-48 93,-72 156,-72 58,0 111,18 160,53 l -6,74 C 356,77 305,57 251,57 170,57 115,133 112,215 m 238,62 H 117 c 13,56 57,116 119,116 67,0 104,-54 114,-116 z" />
  </defs>
  <g
     stroke="#000000"
     fill="#000000"
     stroke-width="0"
     transform="matrix(1,0,0,-1,-82.000009,-0.01458615)"
     id="g13">
    <g
       data-mml-node="math"
       data-latex="\mathsf{p}y\mathsf{pagate}"
       data-semantic-type="infixop"
       data-semantic-role="implicit"
       data-semantic-annotation="clearspeak:unit;depth:1"
       data-semantic-id="5"
       data-semantic-children="0,1,2"
       data-semantic-content="3,4"
       data-semantic-attributes="latex:\mathsf{p}y\mathsf{pagate}"
       data-semantic-owns="0 3 1 4 2"
       aria-level="0"
       data-speech-node="true"
       data-semantic-structure="(5 0 3 1 4 2)"
       id="g12">
      <g
         data-mml-node="TeXAtom"
         data-mjx-texclass="ORD"
         data-latex="\mathsf{p}"
         id="g2"
         style="fill:#3776ab;fill-opacity:1"
         transform="matrix(3.2606542,0,0,3.2606542,-185.37364,-1290.8336)">
        <g
           data-mml-node="mi"
           data-latex="p"
           data-semantic-type="identifier"
           data-semantic-role="latinletter"
           data-semantic-font="sans-serif"
           data-semantic-annotation="clearspeak:simple;nemeth:number;depth:2"
           data-semantic-id="0"
           data-semantic-parent="5"
           data-semantic-attributes="latex:\mathsf{p};texclass:ORD"
           aria-level="1"
           data-speech-node="true"
           id="g1"
           style="fill:#3776ab;fill-opacity:1">
          <use
             data-c="1D5C9"
             xlink:href="#MJX-12-NCM-SS-1D5C9"
             id="use1"
             style="fill:#3776ab;fill-opacity:1" />
        </g>
      </g>
      <g
         data-mml-node="mo"
         data-semantic-type="operator"
         data-semantic-role="multiplication"
         data-semantic-annotation="depth:2"
         data-semantic-id="3"
         data-semantic-parent="5"
         data-semantic-added="true"
         data-semantic-operator="infixop,⁢"
         aria-level="1"
         data-speech-node="true"
         transform="translate(517)"
         id="g3">
        <use
           data-c="2062"
           xlink:href="#MJX-12-NCM-N-2062"
           id="use2" />
      </g>
      <g
         data-mml-node="mi"
         data-latex="y"
         data-semantic-type="identifier"
         data-semantic-role="latinletter"
         data-semantic-font="italic"
         data-semantic-annotation="clearspeak:simple;depth:2"
         data-semantic-id="1"
         data-semantic-parent="5"
         data-semantic-attributes="latex:y"
         aria-level="1"
         data-speech-node="true"
         transform="matrix(3.2606542,0,0,3.2606542,1500.3846,-1290.8336)"
         id="g4"
         style="fill:#ffd343;fill-opacity:1">
        <use
           data-c="1D466"
           xlink:href="#MJX-12-NCM-I-1D466"
           id="use3"
           style="fill:#ffd343;fill-opacity:1" />
      </g>
      <g
         data-mml-node="mo"
         data-semantic-type="operator"
         data-semantic-role="multiplication"
         data-semantic-annotation="depth:2"
         data-semantic-id="4"
         data-semantic-parent="5"
         data-semantic-added="true"
         data-semantic-operator="infixop,⁢"
         aria-level="1"
         data-speech-node="true"
         transform="translate(1007)"
         id="g5">
        <use
           data-c="2062"
           xlink:href="#MJX-12-NCM-N-2062"
           id="use4" />
      </g>
      <g
         data-mml-node="TeXAtom"
         data-mjx-texclass="ORD"
         data-latex="\mathsf{pagate}"
         transform="matrix(3.2606542,0,0,3.2606542,3098.1052,-1290.8336)"
         id="g11"
         style="fill:#3776ab;fill-opacity:1">
        <g
           data-mml-node="mi"
           data-latex="pagate"
           data-semantic-type="identifier"
           data-semantic-role="unknown"
           data-semantic-font="sans-serif"
           data-semantic-annotation="depth:2"
           data-semantic-id="2"
           data-semantic-parent="5"
           data-semantic-attributes="latex:\mathsf{pagate};texclass:ORD"
           aria-level="1"
           data-speech-node="true"
           id="g10"
           style="fill:#3776ab;fill-opacity:1">
          <use
             data-c="1D5C9"
             xlink:href="#MJX-12-NCM-SS-1D5C9"
             id="use5"
             style="fill:#3776ab;fill-opacity:1" />
          <use
             data-c="1D5BA"
             xlink:href="#MJX-12-NCM-SS-1D5BA"
             transform="translate(517)"
             id="use6"
             style="fill:#3776ab;fill-opacity:1" />
          <use
             data-c="1D5C0"
             xlink:href="#MJX-12-NCM-SS-1D5C0"
             transform="translate(998)"
             id="use7"
             style="fill:#3776ab;fill-opacity:1" />
          <use
             data-c="1D5BA"
             xlink:href="#MJX-12-NCM-SS-1D5BA"
             transform="translate(1498)"
             id="use8"
             style="fill:#3776ab;fill-opacity:1" />
          <use
             data-c="1D5CD"
             xlink:href="#MJX-12-NCM-SS-1D5CD"
             transform="translate(1979)"
             id="use9"
             style="fill:#3776ab;fill-opacity:1" />
          <use
             data-c="1D5BE"
             xlink:href="#MJX-12-NCM-SS-1D5BE"
             transform="translate(2340)"
             id="use10"
             style="fill:#3776ab;fill-opacity:1" />
        </g>
      </g>
    </g>
  </g>
</svg>
